<svg xmlns="http://www.w3.org/2000/svg" xmlns:xlink="http://www.w3.org/1999/xlink" viewBox="0 0 500 500"><defs><clipPath id="freepik--clip-path--inject-2"><path d="M259.51,91.17a58.08,58.08,0,0,0,0,13.48c.54,3.84,2.49,7,3.53,9.81,0,0-2.84,10.9-10.93,10.41s-10.42-8.45-10.42-8.45a12.88,12.88,0,0,0,0-9C239.85,102.94,251,92,251,92l7.47-2.27Z" style="fill:#fff;stroke:#263238;stroke-linecap:round;stroke-linejoin:round"></path></clipPath><clipPath id="freepik--clip-path-2--inject-2"><rect x="115.59" y="172.43" width="5.27" height="25.96" style="fill:#263238;stroke:#263238;stroke-linecap:round;stroke-linejoin:round"></rect></clipPath><clipPath id="freepik--clip-path-3--inject-2"><rect x="71.29" y="172.43" width="44.3" height="25.96" style="fill:#263238;stroke:#263238;stroke-linecap:round;stroke-linejoin:round"></rect></clipPath><clipPath id="freepik--clip-path-4--inject-2"><polygon points="101.24 172.43 85.34 172.43 87.53 165.53 99.06 165.53 101.24 172.43" style="fill:#263238;stroke:#263238;stroke-linecap:round;stroke-linejoin:round"></polygon></clipPath><clipPath id="freepik--clip-path-5--inject-2"><polygon points="101.6 165.53 99.06 165.53 101.24 172.43 103.78 172.43 101.6 165.53" style="fill:#263238;stroke:#263238;stroke-linecap:round;stroke-linejoin:round"></polygon></clipPath><clipPath id="freepik--clip-path-6--inject-2"><rect x="206.29" y="198.25" width="97.8" height="58.55" style="fill:none;stroke:#263238;stroke-linecap:round;stroke-linejoin:round"></rect></clipPath><clipPath id="freepik--clip-path-7--inject-2"><rect x="304.09" y="198.25" width="20.44" height="58.55" style="fill:none;stroke:#263238;stroke-linecap:round;stroke-linejoin:round"></rect></clipPath><clipPath id="freepik--clip-path-8--inject-2"><rect x="206.29" y="256.8" width="118.24" height="5.13" style="fill:#263238;stroke:#263238;stroke-linecap:round;stroke-linejoin:round"></rect></clipPath><clipPath id="freepik--clip-path-9--inject-2"><rect x="155.03" y="210.8" width="6.13" height="34.67" transform="matrix(0.99, -0.13, 0.13, 0.99, -27.38, 21.65)" style="fill:#10A6FA;stroke:#263238;stroke-linecap:round;stroke-linejoin:round;stroke-width:0.75px"></rect></clipPath><clipPath id="freepik--clip-path-10--inject-2"><polygon points="171.11 209.01 160.22 196.08 165.04 209.78 171.11 209.01" style="fill:#10A6FA;stroke:#263238;stroke-linecap:round;stroke-linejoin:round;stroke-width:0.75px"></polygon></clipPath><clipPath id="freepik--clip-path-11--inject-2"><polygon points="157.23 245.71 168.13 258.65 163.31 244.94 157.23 245.71" style="fill:#10A6FA;stroke:#263238;stroke-linecap:round;stroke-linejoin:round;stroke-width:0.75px"></polygon></clipPath><clipPath id="freepik--clip-path-12--inject-2"><rect x="167.19" y="209.26" width="6.13" height="34.67" transform="translate(-27.1 23.16) rotate(-7.21)" style="fill:#10A6FA;stroke:#263238;stroke-linecap:round;stroke-linejoin:round;stroke-width:0.75px"></rect></clipPath><clipPath id="freepik--clip-path-13--inject-2"><rect x="190.22" y="222.29" width="4.68" height="26.48" transform="matrix(-0.96, -0.29, 0.29, -0.96, 307.83, 517.07)" style="fill:#10A6FA;stroke:#263238;stroke-linecap:round;stroke-linejoin:round;stroke-width:0.75px"></rect></clipPath><clipPath id="freepik--clip-path-14--inject-2"><polygon points="185.24 219.45 195.12 211.13 189.71 220.82 185.24 219.45" style="fill:#10A6FA;stroke:#263238;stroke-linecap:round;stroke-linejoin:round;stroke-width:0.75px"></polygon></clipPath><clipPath id="freepik--clip-path-15--inject-2"><polygon points="190.92 248.88 181.04 257.2 186.45 247.51 190.92 248.88" style="fill:#10A6FA;stroke:#263238;stroke-linecap:round;stroke-linejoin:round;stroke-width:0.75px"></polygon></clipPath><clipPath id="freepik--clip-path-16--inject-2"><rect x="181.27" y="219.56" width="4.68" height="26.48" transform="translate(291.13 509.1) rotate(-163)" style="fill:#10A6FA;stroke:#263238;stroke-linecap:round;stroke-linejoin:round;stroke-width:0.75px"></rect></clipPath><clipPath id="freepik--clip-path-17--inject-2"><rect x="147.6" y="223.06" width="4.68" height="26.48" transform="translate(406.2 348.79) rotate(146.1)" style="fill:#10A6FA;stroke:#263238;stroke-linecap:round;stroke-linejoin:round;stroke-width:0.75px"></rect></clipPath><clipPath id="freepik--clip-path-18--inject-2"><polygon points="132.85 231.84 132.63 218.92 136.73 229.23 132.85 231.84" style="fill:#10A6FA;stroke:#263238;stroke-linecap:round;stroke-linejoin:round;stroke-width:0.75px"></polygon></clipPath><clipPath id="freepik--clip-path-19--inject-2"><polygon points="159.27 245.99 159.49 258.9 155.39 248.59 159.27 245.99" style="fill:#10A6FA;stroke:#263238;stroke-linecap:round;stroke-linejoin:round;stroke-width:0.75px"></polygon></clipPath><clipPath id="freepik--clip-path-20--inject-2"><rect x="139.84" y="228.28" width="4.68" height="26.48" transform="translate(394.89 362.68) rotate(146.1)" style="fill:#10A6FA;stroke:#263238;stroke-linecap:round;stroke-linejoin:round;stroke-width:0.75px"></rect></clipPath><clipPath id="freepik--clip-path-21--inject-2"><path d="M134.83,430h-2.12a1.63,1.63,0,0,1-1.64-1.62L129.93,283.7h7.68l-1.14,144.67A1.64,1.64,0,0,1,134.83,430Z" style="fill:#757575;stroke:#263238;stroke-linecap:round;stroke-linejoin:round"></path></clipPath><clipPath id="freepik--clip-path-22--inject-2"><path d="M165.59,430h-2.12a1.64,1.64,0,0,1-1.64-1.62L160.69,283.7h7.68l-1.14,144.67A1.64,1.64,0,0,1,165.59,430Z" style="fill:#5c5c5c;stroke:#263238;stroke-linecap:round;stroke-linejoin:round"></path></clipPath><clipPath id="freepik--clip-path-23--inject-2"><path d="M375.29,430h-2.12a1.64,1.64,0,0,1-1.64-1.62L370.39,283.7h7.68l-1.14,144.67A1.63,1.63,0,0,1,375.29,430Z" style="fill:#5c5c5c;stroke:#263238;stroke-linecap:round;stroke-linejoin:round"></path></clipPath><clipPath id="freepik--clip-path-24--inject-2"><path d="M406.06,430h-2.13a1.64,1.64,0,0,1-1.64-1.62L401.15,283.7h7.69l-1.15,144.67A1.62,1.62,0,0,1,406.06,430Z" style="fill:#757575;stroke:#263238;stroke-linecap:round;stroke-linejoin:round"></path></clipPath><clipPath id="freepik--clip-path-25--inject-2"><path d="M338.08,223.65a.57.57,0,0,1,.4,1L336.07,227v31.81A3.06,3.06,0,0,1,333,261.9h-17.9a3.06,3.06,0,0,1-3.06-3.06V223.65Z" style="fill:none;stroke:#263238;stroke-linecap:round;stroke-linejoin:round;stroke-width:0.75px"></path></clipPath><clipPath id="freepik--clip-path-26--inject-2"><path d="M293.91,188.92a2.14,2.14,0,1,1-2.14-2.13A2.14,2.14,0,0,1,293.91,188.92Z" style="fill:none;stroke:#263238;stroke-linecap:round;stroke-linejoin:round"></path></clipPath><clipPath id="freepik--clip-path-27--inject-2"><path d="M268.21,203.49a2.14,2.14,0,1,1-2.14-2.13A2.14,2.14,0,0,1,268.21,203.49Z" style="fill:none;stroke:#263238;stroke-linecap:round;stroke-linejoin:round"></path></clipPath><clipPath id="freepik--clip-path-28--inject-2"><path d="M259.37,194.59a2.14,2.14,0,1,1-2.14-2.14A2.14,2.14,0,0,1,259.37,194.59Z" style="fill:none;stroke:#263238;stroke-linecap:round;stroke-linejoin:round"></path></clipPath><clipPath id="freepik--clip-path-29--inject-2"><path d="M238.42,186.44a2.14,2.14,0,1,1-2.13-2.13A2.13,2.13,0,0,1,238.42,186.44Z" style="fill:none;stroke:#263238;stroke-linecap:round;stroke-linejoin:round"></path></clipPath></defs><g id="freepik--background-simple--inject-2"><path d="M97,257.27c33.85-24.51,90.32,9.21,118.51-21.64,28-30.62,13.78-94.52,19.42-143.75,3.1-27,40.16-67.39,84.57-68.49C380.75,21.86,446.7,64.27,464.27,115c21.06,60.87-41.38,168.09-71.24,216.67C363.32,380,279.42,443.14,223.8,454.27c-44.49,8.9-101-20.86-131.41-63.61C59.38,344.3,66.85,279.07,97,257.27Z" style="fill:#10A6FA"></path><path d="M97,257.27c33.85-24.51,90.32,9.21,118.51-21.64,28-30.62,13.78-94.52,19.42-143.75,3.1-27,40.16-67.39,84.57-68.49C380.75,21.86,446.7,64.27,464.27,115c21.06,60.87-41.38,168.09-71.24,216.67C363.32,380,279.42,443.14,223.8,454.27c-44.49,8.9-101-20.86-131.41-63.61C59.38,344.3,66.85,279.07,97,257.27Z" style="fill:#fff;opacity:0.7000000000000001"></path></g><g id="freepik--Shadow--inject-2"><path d="M113.32,410.26s-41.27,16.83-10.41,28.22c30,11.09-72.47,13.83-72.47,28.43s199.43,12.75,199.43-3.23S287,450.77,340.78,450.77s175.09-20.6,90.62-39.49Z" style="fill:#10A6FA"></path></g><g id="freepik--Floor--inject-2"><line x1="24.49" y1="410.26" x2="475.01" y2="410.26" style="fill:none;stroke:#263238;stroke-linecap:round;stroke-linejoin:round"></line></g><g id="freepik--Shelf--inject-2"><path d="M316.59,259.93V407.42a2.84,2.84,0,0,0,2.84,2.84h3.51a2.84,2.84,0,0,0,2.84-2.84V357.88h6.16m135.58-185V99.48a4.6,4.6,0,0,0-4.59-4.6h0a4.6,4.6,0,0,0-4.6,4.6V129.2H325.78V99.48a4.6,4.6,0,0,0-4.6-4.6h0a4.6,4.6,0,0,0-4.59,4.6V252.05m22.7,105.83h119v49.54a2.84,2.84,0,0,0,2.84,2.84h3.51a2.84,2.84,0,0,0,2.84-2.84V180.19m-23.66,22.17H325.78v-64h5.52m6.71,0H458.33v64h-7.12m-53.4,9.19h60.52v64H347.93m-8,0H325.78v-64h63.4m49.56,137.14h-113v-64m7.76,0H458.33v64H446.1" style="fill:none;stroke:#263238;stroke-linecap:round;stroke-linejoin:round;stroke-width:0.75px"></path><path d="M366.06,246.24V222.52h-8.72v23.72A16.15,16.15,0,0,0,352,274.75a4.73,4.73,0,0,0,2.81.9h13.71a4.93,4.93,0,0,0,3-1,16.16,16.16,0,0,0-5.46-28.4Z" style="fill:none;stroke:#263238;stroke-linecap:round;stroke-linejoin:round;stroke-width:0.75px"></path><path d="M367,222.52H356.39a1.79,1.79,0,0,1-1.79-1.79h0a1.79,1.79,0,0,1,1.79-1.79H367a1.79,1.79,0,0,1,1.79,1.79h0A1.79,1.79,0,0,1,367,222.52Z" style="fill:none;stroke:#263238;stroke-linecap:round;stroke-linejoin:round;stroke-width:0.75px"></path><path d="M440.08,179.45V161h-6.8v18.5a12.59,12.59,0,0,0-4.14,22.23,3.64,3.64,0,0,0,2.19.7H442a3.8,3.8,0,0,0,2.31-.79,12.59,12.59,0,0,0-4.25-22.14Z" style="fill:none;stroke:#263238;stroke-linecap:round;stroke-linejoin:round;stroke-width:0.75px"></path><path d="M440.82,161h-8.28a1.4,1.4,0,0,1-1.4-1.4h0a1.4,1.4,0,0,1,1.4-1.39h8.28a1.39,1.39,0,0,1,1.39,1.39h0A1.4,1.4,0,0,1,440.82,161Z" style="fill:none;stroke:#263238;stroke-linecap:round;stroke-linejoin:round;stroke-width:0.75px"></path><path d="M365.4,124.5l-10.57-15.71V93.2h.76a1.45,1.45,0,1,0,0-2.89H347a1.45,1.45,0,0,0,0,2.89h.77v15.59L337.21,124.5a3,3,0,0,0,2.45,4.59H363A2.94,2.94,0,0,0,365.4,124.5Z" style="fill:none;stroke:#263238;stroke-linecap:round;stroke-linejoin:round;stroke-width:0.75px"></path><path d="M440,270.05l-12.9-19.17v-19h.93a1.77,1.77,0,0,0,0-3.53H417.61a1.77,1.77,0,0,0,0,3.53h.93v19l-12.9,19.17a3.6,3.6,0,0,0,3,5.6h28.44A3.6,3.6,0,0,0,440,270.05Z" style="fill:none;stroke:#263238;stroke-linecap:round;stroke-linejoin:round;stroke-width:0.75px"></path><path d="M361.09,344.75l-9-13.34V318.16h.65a1.23,1.23,0,0,0,0-2.46h-7.28a1.23,1.23,0,0,0,0,2.46h.65v13.25l-9,13.34a2.5,2.5,0,0,0,2.07,3.9H359A2.51,2.51,0,0,0,361.09,344.75Z" style="fill:none;stroke:#263238;stroke-linecap:round;stroke-linejoin:round;stroke-width:0.75px"></path><path d="M391.3,167.58a.51.51,0,0,0-.36.88l2.2,2.2v29a2.79,2.79,0,0,0,2.79,2.79h16.33a2.79,2.79,0,0,0,2.79-2.79v-32.1Z" style="fill:none;stroke:#263238;stroke-linecap:round;stroke-linejoin:round;stroke-width:0.75px"></path><path d="M409.8,295.33a.79.79,0,0,1,.56,1.35L407,300.05v44.34a4.27,4.27,0,0,1-4.27,4.26h-25a4.26,4.26,0,0,1-4.26-4.26V295.33Z" style="fill:none;stroke:#263238;stroke-linecap:round;stroke-linejoin:round;stroke-width:0.75px"></path><path d="M440.15,314.76a.51.51,0,0,1,.36.86l-2.14,2.14v28.18a2.71,2.71,0,0,1-2.71,2.71H419.8a2.71,2.71,0,0,1-2.71-2.71V314.76Z" style="fill:none;stroke:#263238;stroke-linecap:round;stroke-linejoin:round;stroke-width:0.75px"></path><polygon points="340.09 202.38 359.73 176.31 379.37 202.38 340.09 202.38" style="fill:none;stroke:#263238;stroke-linecap:round;stroke-linejoin:round;stroke-width:0.75px"></polygon><polyline points="359.73 176.31 359.73 202.38 379.37 202.38" style="fill:none;stroke:#263238;stroke-linecap:round;stroke-linejoin:round;stroke-width:0.75px"></polyline><polygon points="379.37 150.7 359.73 176.78 340.09 150.7 379.37 150.7" style="fill:none;stroke:#263238;stroke-linecap:round;stroke-linejoin:round;stroke-width:0.75px"></polygon><polygon points="340.09 150.7 359.73 176.78 359.73 150.7 340.09 150.7" style="fill:none;stroke:#263238;stroke-linecap:round;stroke-linejoin:round;stroke-width:0.75px"></polygon><circle cx="407.18" cy="85.38" r="19.02" transform="translate(174.11 430) rotate(-67.77)" style="fill:none;stroke:#263238;stroke-linecap:round;stroke-linejoin:round;stroke-width:0.75px"></circle><path d="M435.54,85.38a5.33,5.33,0,1,0,5.33-5.33A5.33,5.33,0,0,0,435.54,85.38Z" style="fill:none;stroke:#263238;stroke-linecap:round;stroke-linejoin:round;stroke-width:0.75px"></path><path d="M421.16,124h-9.61l-.92-19.94a18.25,18.25,0,0,1-6.91,0L402.8,124h-9.61a4.67,4.67,0,0,0-4.67,4.67v.41h37.31v-.41A4.67,4.67,0,0,0,421.16,124Z" style="fill:none;stroke:#263238;stroke-linecap:round;stroke-linejoin:round;stroke-width:0.75px"></path><path d="M440.87,90.71a5.34,5.34,0,0,1-1.28-.17V103.3a2.91,2.91,0,0,1-2.92,2.91H410.73l.12,2.56h25.82a5.48,5.48,0,0,0,5.48-5.47V90.54A5.48,5.48,0,0,1,440.87,90.71Z" style="fill:none;stroke:#263238;stroke-linecap:round;stroke-linejoin:round;stroke-width:0.75px"></path></g><g id="freepik--Character--inject-2"><path d="M296.77,407.2s1.63,5.84,1.56,7.84c-.05,1.39-1.17,4.26-2.29,5.09-2.09,1.54-6.33.79-7.35,7.33a2.2,2.2,0,0,0,2.17,2.53h23.62a2.34,2.34,0,0,0,2.35-2.55,27.18,27.18,0,0,0-1.31-7.37c-.68-1.68-2.53-4.85-3.13-6.56-.73-2.05-2-8.45-2-8.45Z" style="fill:#fff;stroke:#263238;stroke-linecap:round;stroke-linejoin:round"></path><path d="M316.83,427.44a27.18,27.18,0,0,0-1.31-7.37c-.44-1.09-1.36-2.78-2.12-4.31-1.14,1.05-2,2.65-3.39,2.84-2.21.3-4-3.73-8.09-3.73a7.41,7.41,0,0,0-3.69.91c-.3,1.5-1.24,3.65-2.19,4.35-2.09,1.54-6.33.79-7.35,7.33a2.2,2.2,0,0,0,2.17,2.53h23.62A2.34,2.34,0,0,0,316.83,427.44Z" style="fill:#bfbfbf;stroke:#263238;stroke-linecap:round;stroke-linejoin:round"></path><path d="M232,407.2s.71,6.73-.38,8.58c-1.19,2-6.06,3.76-8.33,4.41-3,.87-10.54.75-10.54,6.87v1.26a1.67,1.67,0,0,0,1.67,1.67h34.11a2.32,2.32,0,0,0,2.3-2.71c-.56-3.14-2.88-7.73-4-11.5-.62-2.06.24-8.58.24-8.58Z" style="fill:#fff;stroke:#263238;stroke-linecap:round;stroke-linejoin:round"></path><path d="M250.79,427.28c-.54-3-2.71-7.4-3.88-11.1-1,.63-1.67,1.73-2.52,2.42a4.57,4.57,0,0,1-4.6.79c-2-.55-.18-3.86-3.49-4.41a12,12,0,0,0-4.5.27,2.35,2.35,0,0,1-.22.53c-1.19,2-6.06,3.76-8.33,4.41-3,.87-10.54.75-10.54,6.87v1.26a1.67,1.67,0,0,0,1.67,1.67h34.11A2.32,2.32,0,0,0,250.79,427.28Z" style="fill:#bfbfbf;stroke:#263238;stroke-linecap:round;stroke-linejoin:round"></path><path d="M239.82,218.22a610.45,610.45,0,0,0-7.66,62.7c-2.31,34-2.29,36.88-2.29,36.88l1.18,92s9.09,3.67,17.42-.64c0,0,8.51-59.93,6.2-86.34,0,0,8.28-38.74,9.7-56.14,0,0,12.62-11.22,12.81-21.08s-.9-28.56-.9-28.56Z" style="fill:#263238;stroke:#263238;stroke-linecap:round;stroke-linejoin:round"></path><path d="M255.9,219.89s1.83,38.92,8.09,42.77c0,0,3.15,46.23,8.8,62.6s23.13,84.32,23.13,84.32,11.45,1.42,16.47-2.79c0,0-5.37-53.6-13.25-83.51l-2.63-73.89s4.44-12.16-.59-37.38Z" style="fill:#263238;stroke:#263238;stroke-linecap:round;stroke-linejoin:round"></path><path d="M238,218l-1.72,5.6s5.69,4.12,7.88,4.89c2.69.95,11.32,1.42,11.32,1.42l1-4.42,5.24,4.42s16-2.19,21.26-3.44c4-1,15.75-5,15.75-5l-2.3-6.91Z" style="fill:#fff;stroke:#263238;stroke-linecap:round;stroke-linejoin:round"></path><path d="M296.61,216.54c-3.15,3.55-23,8.08-42.38,6.92s-17.23-.89-17-10.24a214.36,214.36,0,0,0-3.66-41.5c-1.77-9.7-3-20.3-4.85-30,0,0-17.72,10.94-14.2,12.28s-5.56,2.58-5.56,2.58l16.63,3.08c-2.41,3.34,0,11.6,0,11.6-11.23-1-38.54-.95-39.53-11-.54-5.62,7.34-12,14-18.07,11.14-10.07,17.69-17.36,17.69-17.36-.66-5.26,4.5-3.53,4.5-3.53h0c-.72-1.49-1.07-3.48,5.77-2.13,0,0,12.68-6.76,50.67-6.49,0,0,9-2.16,8.52.53,0,0,6.66,23.09,7.54,36.67C295.43,160.23,296.61,216.54,296.61,216.54Z" style="fill:#10A6FA;stroke:#263238;stroke-linecap:round;stroke-linejoin:round"></path><path d="M259.51,91.17a58.08,58.08,0,0,0,0,13.48c.54,3.84,2.49,7,3.53,9.81,0,0-2.84,10.9-10.93,10.41s-10.42-8.45-10.42-8.45a12.88,12.88,0,0,0,0-9C239.85,102.94,251,92,251,92l7.47-2.27Z" style="fill:#fff"></path><g style="clip-path:url(#freepik--clip-path--inject-2)"><path d="M232.72,95c2.35,6.15,8.86,20.69,17.78,20,11.91-1,10-18.78,9.91-20Z" style="fill:#263238;stroke:#263238;stroke-linecap:round;stroke-linejoin:round"></path></g><path d="M259.51,91.17a58.08,58.08,0,0,0,0,13.48c.54,3.84,2.49,7,3.53,9.81,0,0-2.84,10.9-10.93,10.41s-10.42-8.45-10.42-8.45a12.88,12.88,0,0,0,0-9C239.85,102.94,251,92,251,92l7.47-2.27Z" style="fill:none;stroke:#263238;stroke-linecap:round;stroke-linejoin:round"></path><path d="M259.17,81.29c.93-.12.22-11.56-4.94-12.49,0,0-7.54-5.32-21.24,0S225.3,81.65,221.88,85a4.31,4.31,0,0,0,3.85-4.87s2,11.34,7.22,16.33,17.53,3.25,17.53,3.25l5.13-4Z" style="fill:#263238;stroke:#263238;stroke-linecap:round;stroke-linejoin:round"></path><path d="M227.9,81.59l2.57,8.48s7.42,23.48,18.9,22.5c12.51-1.08,10.17-20,10.17-20s2.16.45,3.49-3,.91-12.81-3.88-7.37c0,0,.18,3-1,3.39S254.63,81,253,81.09s-1.54-6.67-6-7.33-6.87-.24-12,1.68S226.34,76.44,227.9,81.59Z" style="fill:#fff;stroke:#263238;stroke-linecap:round;stroke-linejoin:round"></path><path d="M231.89,90.56s-2.21-1.84-2.82,0,2.21,8.33,4.66,8.21S231.89,90.56,231.89,90.56Z" style="fill:none;stroke:#263238;stroke-linecap:round;stroke-linejoin:round"></path><path d="M238.52,91.21s3.62,5.48,3,8.79c-.45,2.27,1.44,1.59,3,1.22" style="fill:none;stroke:#263238;stroke-linecap:round;stroke-linejoin:round"></path><path d="M260.1,81.17V79.26c-2.48,2.57-31.43,11.88-31.43,11.88a.93.93,0,0,0-.45,1.41l5.41,7.84a.92.92,0,0,0,1.07.35L239.78,99a.94.94,0,0,0,.63-1l-.23-2.25a.93.93,0,0,1,1.65-.68l1.62,2a.94.94,0,0,0,1,.29l8.31-2.87a.93.93,0,0,0,.63-1l-.86-8C261,82.93,260.1,81.17,260.1,81.17Z" style="fill:#10A6FA;stroke:#263238;stroke-linecap:round;stroke-linejoin:round"></path><path d="M234.71,75.07s-3.65,5.86.6,10.15C235.31,85.22,222.42,77.72,234.71,75.07Z" style="fill:#263238;stroke:#263238;stroke-linecap:round;stroke-linejoin:round"></path><path d="M237.08,95.11c.36.8.33,1.6-.07,1.78s-1-.32-1.38-1.12-.34-1.6.06-1.78S236.71,94.31,237.08,95.11Z" style="fill:#263238"></path><path d="M247.16,92c.21.85,0,1.63-.4,1.73s-.94-.5-1.15-1.36,0-1.63.4-1.73S247,91.09,247.16,92Z" style="fill:#263238"></path><path d="M232.8,92.4a4.39,4.39,0,0,1,4.35-.94" style="fill:none;stroke:#263238;stroke-linecap:round;stroke-linejoin:round"></path><path d="M242.42,89.8a6.49,6.49,0,0,1,6.19-2.88" style="fill:none;stroke:#263238;stroke-linecap:round;stroke-linejoin:round"></path><path d="M243.53,120.55l9.52,4.41,10.64-4.41s-4.5,9-7.85,9.71-8.83-5.37-8.83-5.37Z" style="fill:#263238;stroke:#263238;stroke-linecap:round;stroke-linejoin:round"></path><path d="M240.39,118.32s8.86,12.68,14.79,13.78,10.53-17.64,10.53-17.64H263s-3.83,13.18-7.86,14.15-13-11-13-11Z" style="fill:#10A6FA;stroke:#263238;stroke-linecap:round;stroke-linejoin:round"></path><path d="M242.16,115.27s6.66,8.93,12.07,8,8.51-10.56,8.51-10.56,3.72-1.56,5.73,0c0,0-.92,11.11-2.21,14.6s-4.39-2-12-2-5.46,4.56-9.67,3.66-6-13-6-13S239.2,113.89,242.16,115.27Z" style="fill:#fff;stroke:#263238;stroke-linecap:round;stroke-linejoin:round"></path><path d="M244.53,155.16l10.75,16.05-5-.38-11.64,7.79a4.19,4.19,0,0,1-5.81-1.14L228.47,171a4.2,4.2,0,0,1,1.15-5.81Z" style="fill:#fff;stroke:#263238;stroke-linecap:round;stroke-linejoin:round"></path><path d="M251.13,160.89c1.85,2.77,3,5.44,3.15,7l1.15,2.83a.39.39,0,0,1-.64.43L252.6,169c-1.39-.72-3.42-2.81-5.27-5.58-2.6-3.87-3.85-7.58-2.8-8.28S248.54,157,251.13,160.89Z" style="fill:#fff;stroke:#263238;stroke-linecap:round;stroke-linejoin:round"></path><path d="M255.48,181.15a3,3,0,0,0-.14,1.35.94.94,0,0,0,.94.8c.52-.07.77-.67.89-1.18a17.24,17.24,0,0,0,0-7.53c-.18-.83-1.92-6.58-3-5.7A19.52,19.52,0,0,1,255.48,181.15Z" style="fill:#10A6FA;stroke:#263238;stroke-linecap:round;stroke-linejoin:round"></path><path d="M268.29,177.52a14.45,14.45,0,0,0-4.45,13,1.28,1.28,0,0,0,.38.83.94.94,0,0,0,1.3-.42,2.94,2.94,0,0,0,.21-1.53,21,21,0,0,1,2.83-11,1.66,1.66,0,0,0,.2-1.11C268.69,177.19,268.36,177.45,268.29,177.52Z" style="fill:#263238"></path><path d="M270.34,163.53l-4,19.39,4.6-2.28L285,183.56a4.28,4.28,0,0,0,5.08-3.32l1.64-7.88a4.3,4.3,0,0,0-3.33-5.08Z" style="fill:#fff;stroke:#263238;stroke-linecap:round;stroke-linejoin:round"></path><path d="M266.28,171.52c-.7,3.34-.77,6.33-.3,7.87v3.14a.4.4,0,0,0,.77.16l1.25-2.88c1.05-1.22,2.18-4,2.87-7.33,1-4.68.74-8.68-.53-8.95S267.25,166.84,266.28,171.52Z" style="fill:#fff;stroke:#263238;stroke-linecap:round;stroke-linejoin:round"></path><path d="M277.29,166.75,274,169a2.07,2.07,0,0,0-.77,1l-1,2.58a1.94,1.94,0,0,0-.12.53l-.36,3.72s.66,1.27,2.26.21l.75-3.36,1.44-2.84,3.26-1.86-.82-1.87A.9.9,0,0,0,277.29,166.75Z" style="fill:#fff;stroke:#263238;stroke-linecap:round;stroke-linejoin:round"></path><path d="M298.18,157.74l-8.26,5.12-11.71,3.19-3.06,5.33a3.1,3.1,0,0,0-.4,1.83l.33,3.51a3.09,3.09,0,0,0,.45,1.34l1.58,2.53a1.73,1.73,0,0,0,2,0,33.91,33.91,0,0,1-.86-4.89,24.77,24.77,0,0,1,.73-3.47s.23,3.09.37,4.11.8,4.25.8,4.25a2.12,2.12,0,0,0,3.06.29,41.48,41.48,0,0,1-.43-4.17,33.51,33.51,0,0,1,.62-3.57s-.16,3-.06,4,1,4.33,1,4.33a1.92,1.92,0,0,0,2.49.33,35.38,35.38,0,0,1-.46-4.35,3.62,3.62,0,0,1,1-2.24c1.33-.86,3.31-.37,5.39-3.31l.61-1.45,9.93-4.37Z" style="fill:#fff;stroke:#263238;stroke-linecap:round;stroke-linejoin:round"></path><path d="M286.75,114.21s4.91-2.21,4.8,1.47c0,0,39.32,21.23,38.36,29.69S313.23,163.56,298.73,169c0,0-3.15-6-6.44-9.31l14.89-12.95s-5.19-1.15-.91-1.89a93.59,93.59,0,0,0-16.63-10.08" style="fill:#10A6FA;stroke:#263238;stroke-linecap:round;stroke-linejoin:round"></path><path d="M309.07,145.34c-1.89,2.88,3.94-3.65,15.46-2.44" style="fill:none;stroke:#263238;stroke-linecap:round;stroke-linejoin:round"></path><path d="M316.63,140.48a29.76,29.76,0,0,0-6.22,3.48" style="fill:none;stroke:#263238;stroke-linecap:round;stroke-linejoin:round"></path><path d="M295,155.84l-4.32,3.93s3,.79,6.17,11l5.28-2.31S301.12,162.56,295,155.84Z" style="fill:#fff;stroke:#263238;stroke-linecap:round;stroke-linejoin:round"></path><path d="M219.29,159.71l9.62,1.38,12-1.77,5,3.67a3.09,3.09,0,0,1,1.09,1.52l1.1,3.34c.15.45,1.17,2.89,1.17,2.89s-.62,1.49-1.8.79c-.81-.48-1.38-2.13-1.89-3.26a19.58,19.58,0,0,0-2.81-3,17.45,17.45,0,0,1,2,3.3c.3,1,1,4.21,1,4.21s-1.62,3.19-3.31,1.62c-.77-.71-.88-2.57-1.34-3.51a15.08,15.08,0,0,0-2.56-2.64,28.63,28.63,0,0,1,1.7,3.35,16.4,16.4,0,0,1,1,3.11c0,.63-.41,1.48-2.15,1.3a18.49,18.49,0,0,0-1-3,3.68,3.68,0,0,0-1.8-1.67c-1.56-.25-3.18,1-6.26-.87l-1.14-1.08-10.85,0Z" style="fill:#fff;stroke:#263238;stroke-linecap:round;stroke-linejoin:round"></path><path d="M240.39,165.74a34.56,34.56,0,0,1,2.34,3.54,35.45,35.45,0,0,1,1.2,4.3" style="fill:none;stroke:#263238;stroke-linecap:round;stroke-linejoin:round"></path><path d="M197.64,156.38s6.37-.56,9.32,0" style="fill:none;stroke:#263238;stroke-linecap:round;stroke-linejoin:round"></path><path d="M221.75,157.74l5.62,1.63s-2.34,2-.69,12.62l-5.76.24S219.22,166.47,221.75,157.74Z" style="fill:#fff;stroke:#263238;stroke-linecap:round;stroke-linejoin:round"></path><path d="M212,153.83a15.67,15.67,0,0,1-8.41-.81,1,1,0,0,1-.42-.25.36.36,0,0,1,0-.45l5.2.44" style="fill:none;stroke:#263238;stroke-linecap:round;stroke-linejoin:round"></path><path d="M233.45,318.81s3.73,9,12.2,8.94" style="fill:none;stroke:#7f7f7f;stroke-linecap:round;stroke-linejoin:round"></path><path d="M274.18,325s1.33,4.46,10.2,5.76" style="fill:none;stroke:#7f7f7f;stroke-linecap:round;stroke-linejoin:round"></path><polyline points="262.3 260.37 264.18 262.67 265.14 270.62" style="fill:none;stroke:#7f7f7f;stroke-linecap:round;stroke-linejoin:round"></polyline><path d="M257.86,239.94c.58,5.87,1.72,15,3.58,19.38" style="fill:none;stroke:#7f7f7f;stroke-linecap:round;stroke-linejoin:round"></path><path d="M257.41,234.55s.07,1.07.22,2.8" style="fill:#10A6FA;stroke:#7f7f7f;stroke-linecap:round;stroke-linejoin:round"></path><path d="M245.45,104.16s1,1.06,3.91-.08A6.29,6.29,0,0,0,253,100.8" style="fill:none;stroke:#263238;stroke-linecap:round;stroke-linejoin:round"></path><path d="M250.51,103.38c-.86.62-.29-2.1-.31-3.16a1.51,1.51,0,0,1,.21-.94,1.06,1.06,0,0,1,1.49,0,2.9,2.9,0,0,1,.74,1.47S253.25,101.43,250.51,103.38Z" style="fill:none;stroke:#263238;stroke-linecap:round;stroke-linejoin:round"></path><path d="M233,331.77a104.14,104.14,0,0,0,15.81,27.84" style="fill:none;stroke:#7f7f7f;stroke-linecap:round;stroke-linejoin:round"></path><path d="M252.86,321.25s-7.29-.14-7.15,1.15,1.81,1.39,3,1.21" style="fill:none;stroke:#7f7f7f;stroke-linecap:round;stroke-linejoin:round"></path><path d="M296.68,322.48c-1.82.55-3.62,1.17-5.38,1.88-.43.17-.92.41-1,.86a1,1,0,0,0,.92,1.16,14.87,14.87,0,0,0,3.65,0" style="fill:none;stroke:#7f7f7f;stroke-linecap:round;stroke-linejoin:round"></path><path d="M269.69,279.53a198.66,198.66,0,0,0,2.14,43.85" style="fill:none;stroke:#7f7f7f;stroke-linecap:round;stroke-linejoin:round"></path><path d="M281.71,346.45a313.23,313.23,0,0,0,19.42,33.35" style="fill:none;stroke:#7f7f7f;stroke-linecap:round;stroke-linejoin:round"></path><path d="M265.4,259.48a34.31,34.31,0,0,1,18-8.27c.81-.11,1.86-.05,2.12.71s-.6,1.52-1.36,1.91a88.18,88.18,0,0,1-12.27,5.2" style="fill:none;stroke:#7f7f7f;stroke-linecap:round;stroke-linejoin:round"></path><path d="M248.23,252.4A47.5,47.5,0,0,0,262.85,261" style="fill:none;stroke:#7f7f7f;stroke-linecap:round;stroke-linejoin:round"></path><path d="M225.34,125a80.73,80.73,0,0,0,3.73,18.66" style="fill:#10A6FA;stroke:#263238;stroke-linecap:round;stroke-linejoin:round"></path><path d="M217.78,124.66a20.69,20.69,0,0,0,4.35,9.45" style="fill:#10A6FA;stroke:#263238;stroke-linecap:round;stroke-linejoin:round"></path><path d="M223.31,128.68a25.19,25.19,0,0,0,5.37,12.68" style="fill:#10A6FA;stroke:#263238;stroke-linecap:round;stroke-linejoin:round"></path><path d="M294.5,117.46a25.6,25.6,0,0,1,7.24,8.61" style="fill:#10A6FA;stroke:#263238;stroke-linecap:round;stroke-linejoin:round"></path><path d="M281.65,127.43a17.8,17.8,0,0,0,9,12.2" style="fill:#10A6FA;stroke:#263238;stroke-linecap:round;stroke-linejoin:round"></path><path d="M245.91,148.63c6.94,3.73,19.76,10.06,32.15,13.16" style="fill:none;stroke:#263238;stroke-linecap:round;stroke-linejoin:round"></path><path d="M240.67,145.68s.87.52,2.42,1.39" style="fill:none;stroke:#263238;stroke-linecap:round;stroke-linejoin:round"></path><path d="M285.65,124.89a14.37,14.37,0,0,0,4.17,10.56" style="fill:#10A6FA;stroke:#263238;stroke-linecap:round;stroke-linejoin:round"></path><path d="M253.1,205.79a81.45,81.45,0,0,0,27.9.66" style="fill:none;stroke:#263238;stroke-linecap:round;stroke-linejoin:round"></path></g><g id="freepik--Table--inject-2"><g style="clip-path:url(#freepik--clip-path-6--inject-2)"><rect x="206.29" y="204.01" width="97.8" height="52.78" style="fill:#fff;opacity:0.7000000000000001"></rect></g><rect x="206.29" y="198.25" width="97.8" height="58.55" style="fill:none;stroke:#263238;stroke-linecap:round;stroke-linejoin:round"></rect><g style="clip-path:url(#freepik--clip-path-7--inject-2)"><rect x="304.09" y="204.01" width="20.44" height="52.78" style="fill:#fff;opacity:0.5"></rect></g><rect x="304.09" y="198.25" width="20.44" height="58.55" style="fill:none;stroke:#263238;stroke-linecap:round;stroke-linejoin:round"></rect><rect x="206.29" y="256.8" width="118.24" height="5.13" style="fill:#263238"></rect><g style="clip-path:url(#freepik--clip-path-8--inject-2)"><rect x="206.29" y="256.8" width="118.24" height="5.13" style="fill:#fff;opacity:0.2"></rect></g><rect x="206.29" y="256.8" width="118.24" height="5.13" style="fill:none;stroke:#263238;stroke-linecap:round;stroke-linejoin:round"></rect><line x1="311.78" y1="203.49" x2="322.23" y2="203.49" style="fill:#fff;stroke:#263238;stroke-linecap:round;stroke-linejoin:round;stroke-width:0.75px"></line><line x1="306.88" y1="203.49" x2="309.47" y2="203.49" style="fill:#fff;stroke:#263238;stroke-linecap:round;stroke-linejoin:round;stroke-width:0.75px"></line><line x1="292.67" y1="203.49" x2="300.54" y2="203.49" style="fill:#fff;stroke:#263238;stroke-linecap:round;stroke-linejoin:round;stroke-width:0.75px"></line><line x1="233.33" y1="203.49" x2="289.47" y2="203.49" style="fill:#fff;stroke:#263238;stroke-linecap:round;stroke-linejoin:round;stroke-width:0.75px"></line><line x1="225.55" y1="203.49" x2="231.03" y2="203.49" style="fill:#fff;stroke:#263238;stroke-linecap:round;stroke-linejoin:round;stroke-width:0.75px"></line><line x1="209.59" y1="203.49" x2="222.86" y2="203.49" style="fill:#fff;stroke:#263238;stroke-linecap:round;stroke-linejoin:round;stroke-width:0.75px"></line><path d="M251.68,207.65a.58.58,0,0,0-1.13-.05c-1,3.3-3.23,8.88-7.21,11.77-5.88,4.26-5.23,7.89-2.71,10.57s-7.41,5.5-3.17,10,10.41-2.77,12.95,0c0,0,10,6.87,14.49,1.5s-5.18-5-6.23-10.46,3.41-5.09-1.59-11.09C253.8,216,252.32,210.76,251.68,207.65Z" style="fill:#10A6FA"></path><path d="M243.06,224.23c-2.33-.47-6.61,2.8-6.67,6.75s1.93,3.58,3.33,7-.7,6.91,4.3,7.49,5.95-2.31,9.79,0,2.51-3.8,3.27-8.14-1.43,2.18-6.09.84-7.36-.58-7.55-4.42-2-2.1-2.81-3.83S245.23,224.67,243.06,224.23Z" style="fill:#10A6FA"></path><path d="M243.06,224.23c-2.33-.47-6.61,2.8-6.67,6.75s1.93,3.58,3.33,7-.7,6.91,4.3,7.49,5.95-2.31,9.79,0,2.51-3.8,3.27-8.14-1.43,2.18-6.09.84-7.36-.58-7.55-4.42-2-2.1-2.81-3.83S245.23,224.67,243.06,224.23Z" style="opacity:0.1"></path><path d="M248,235.09s6.05,2.46,7.59,0,4-4,3-6.79,9.13,8.39-3.87,11.64S245.63,234.36,248,235.09Z" style="fill:#10A6FA"></path><path d="M248,235.09s6.05,2.46,7.59,0,4-4,3-6.79,9.13,8.39-3.87,11.64S245.63,234.36,248,235.09Z" style="opacity:0.2"></path><path d="M267.42,208.62c-2.44,2.36-2,8.25-6.62,11.84s1.68,7.92,1.68,7.92-6.41.66-6.92,4.52,6.65,3.06,4.22,6.36,3.3,5.67,5.75,5.44,4.36-6.2,8.59-3.78,9.07-.76,8.85-3.93-5-5.23-5.15-8.61,1.11-7.28-2.32-8.42S269,207.09,267.42,208.62Z" style="fill:#263238"></path><path d="M265.38,219.45c-2.42,1-4.81,6-1.21,10.39s6.41-3.6,9.26-2.82-2.55-4-5.3-1.7S268.28,218.27,265.38,219.45Z" style="fill:#fff;opacity:0.2"></path><path d="M277.63,232.73s.1,5.45-4.2,5.28-5.47,4-8.63,2.91-2.44-5.87-4-5.87a3.16,3.16,0,0,1,3.37,1.86c1,2.29,3.25,1.45,5.63,0s2.9-.09,4.43-1.12A24,24,0,0,0,277.63,232.73Z" style="fill:#fff;opacity:0.1"></path><rect x="155.03" y="210.8" width="6.13" height="34.67" transform="matrix(0.99, -0.13, 0.13, 0.99, -27.38, 21.65)" style="fill:#10A6FA"></rect><g style="clip-path:url(#freepik--clip-path-9--inject-2)"><rect x="155.03" y="210.8" width="6.13" height="34.67" transform="matrix(0.99, -0.13, 0.13, 0.99, -27.38, 21.65)" style="opacity:0.30000000000000004"></rect></g><rect x="155.03" y="210.8" width="6.13" height="34.67" transform="matrix(0.99, -0.13, 0.13, 0.99, -27.38, 21.65)" style="fill:none;stroke:#263238;stroke-linecap:round;stroke-linejoin:round;stroke-width:0.75px"></rect><rect x="161.11" y="210.03" width="6.13" height="34.67" transform="translate(-27.24 22.41) rotate(-7.21)" style="fill:#10A6FA;stroke:#263238;stroke-linecap:round;stroke-linejoin:round;stroke-width:0.75px"></rect><polygon points="158.96 210.55 160.22 196.08 165.04 209.78 158.96 210.55" style="fill:#10A6FA;stroke:#263238;stroke-linecap:round;stroke-linejoin:round;stroke-width:0.75px"></polygon><polygon points="152.88 211.32 160.22 196.08 158.96 210.55 152.88 211.32" style="fill:#10A6FA;stroke:#263238;stroke-linecap:round;stroke-linejoin:round;stroke-width:0.75px"></polygon><polygon points="171.11 209.01 160.22 196.08 165.04 209.78 171.11 209.01" style="fill:#10A6FA"></polygon><g style="clip-path:url(#freepik--clip-path-10--inject-2)"><polygon points="171.11 209.01 160.22 196.08 165.04 209.78 171.11 209.01" style="fill:#fff;opacity:0.5"></polygon></g><polygon points="171.11 209.01 160.22 196.08 165.04 209.78 171.11 209.01" style="fill:none;stroke:#263238;stroke-linecap:round;stroke-linejoin:round;stroke-width:0.75px"></polygon><polygon points="169.39 244.18 168.13 258.65 163.31 244.94 169.39 244.18" style="fill:#10A6FA;stroke:#263238;stroke-linecap:round;stroke-linejoin:round;stroke-width:0.75px"></polygon><polygon points="175.47 243.41 168.13 258.65 169.39 244.18 175.47 243.41" style="fill:#10A6FA;stroke:#263238;stroke-linecap:round;stroke-linejoin:round;stroke-width:0.75px"></polygon><polygon points="157.23 245.71 168.13 258.65 163.31 244.94 157.23 245.71" style="fill:#10A6FA"></polygon><g style="clip-path:url(#freepik--clip-path-11--inject-2)"><polygon points="157.23 245.71 168.13 258.65 163.31 244.94 157.23 245.71" style="opacity:0.30000000000000004"></polygon></g><polygon points="157.23 245.71 168.13 258.65 163.31 244.94 157.23 245.71" style="fill:none;stroke:#263238;stroke-linecap:round;stroke-linejoin:round;stroke-width:0.75px"></polygon><rect x="167.19" y="209.26" width="6.13" height="34.67" transform="translate(-27.1 23.16) rotate(-7.21)" style="fill:#10A6FA"></rect><g style="clip-path:url(#freepik--clip-path-12--inject-2)"><rect x="167.19" y="209.26" width="6.13" height="34.67" transform="translate(-27.1 23.16) rotate(-7.21)" style="fill:#fff;opacity:0.5"></rect></g><rect x="167.19" y="209.26" width="6.13" height="34.67" transform="translate(-27.1 23.16) rotate(-7.21)" style="fill:none;stroke:#263238;stroke-linecap:round;stroke-linejoin:round;stroke-width:0.75px"></rect><rect x="190.22" y="222.29" width="4.68" height="26.48" transform="matrix(-0.96, -0.29, 0.29, -0.96, 307.83, 517.07)" style="fill:#10A6FA"></rect><g style="clip-path:url(#freepik--clip-path-13--inject-2)"><rect x="190.22" y="222.29" width="4.68" height="26.48" transform="matrix(-0.96, -0.29, 0.29, -0.96, 307.83, 517.07)" style="opacity:0.30000000000000004"></rect></g><rect x="190.22" y="222.29" width="4.68" height="26.48" transform="matrix(-0.96, -0.29, 0.29, -0.96, 307.83, 517.07)" style="fill:none;stroke:#263238;stroke-linecap:round;stroke-linejoin:round;stroke-width:0.75px"></rect><rect x="185.74" y="220.93" width="4.68" height="26.48" transform="translate(299.5 513.08) rotate(-163)" style="fill:#10A6FA;stroke:#263238;stroke-linecap:round;stroke-linejoin:round;stroke-width:0.75px"></rect><polygon points="194.19 222.19 195.12 211.13 189.71 220.82 194.19 222.19" style="fill:#10A6FA;stroke:#263238;stroke-linecap:round;stroke-linejoin:round;stroke-width:0.75px"></polygon><polygon points="198.66 223.56 195.12 211.13 194.19 222.19 198.66 223.56" style="fill:#10A6FA;stroke:#263238;stroke-linecap:round;stroke-linejoin:round;stroke-width:0.75px"></polygon><polygon points="185.24 219.45 195.12 211.13 189.71 220.82 185.24 219.45" style="fill:#10A6FA"></polygon><g style="clip-path:url(#freepik--clip-path-14--inject-2)"><polygon points="185.24 219.45 195.12 211.13 189.71 220.82 185.24 219.45" style="fill:#fff;opacity:0.5"></polygon></g><polygon points="185.24 219.45 195.12 211.13 189.71 220.82 185.24 219.45" style="fill:none;stroke:#263238;stroke-linecap:round;stroke-linejoin:round;stroke-width:0.75px"></polygon><polygon points="181.97 246.14 181.04 257.2 186.45 247.51 181.97 246.14" style="fill:#10A6FA;stroke:#263238;stroke-linecap:round;stroke-linejoin:round;stroke-width:0.75px"></polygon><polygon points="177.5 244.78 181.04 257.2 181.97 246.14 177.5 244.78" style="fill:#10A6FA;stroke:#263238;stroke-linecap:round;stroke-linejoin:round;stroke-width:0.75px"></polygon><polygon points="190.92 248.88 181.04 257.2 186.45 247.51 190.92 248.88" style="fill:#10A6FA"></polygon><g style="clip-path:url(#freepik--clip-path-15--inject-2)"><polygon points="190.92 248.88 181.04 257.2 186.45 247.51 190.92 248.88" style="opacity:0.30000000000000004"></polygon></g><polygon points="190.92 248.88 181.04 257.2 186.45 247.51 190.92 248.88" style="fill:none;stroke:#263238;stroke-linecap:round;stroke-linejoin:round;stroke-width:0.75px"></polygon><rect x="181.27" y="219.56" width="4.68" height="26.48" transform="translate(291.13 509.1) rotate(-163)" style="fill:#10A6FA"></rect><g style="clip-path:url(#freepik--clip-path-16--inject-2)"><rect x="181.27" y="219.56" width="4.68" height="26.48" transform="translate(291.13 509.1) rotate(-163)" style="fill:#fff;opacity:0.5"></rect></g><rect x="181.27" y="219.56" width="4.68" height="26.48" transform="translate(291.13 509.1) rotate(-163)" style="fill:none;stroke:#263238;stroke-linecap:round;stroke-linejoin:round;stroke-width:0.75px"></rect><rect x="136.07" y="245.46" width="2.55" height="10.43" transform="translate(-148.49 252.03) rotate(-61.55)" style="fill:#10A6FA;stroke:#263238;stroke-linecap:round;stroke-linejoin:round;stroke-width:0.75px"></rect><rect x="137.29" y="243.22" width="2.55" height="10.43" transform="translate(-145.87 251.95) rotate(-61.56)" style="fill:#10A6FA;stroke:#263238;stroke-linecap:round;stroke-linejoin:round;stroke-width:0.75px"></rect><polygon points="133.37 247.07 128.78 243.13 134.59 244.82 133.37 247.07" style="fill:#10A6FA;stroke:#263238;stroke-linecap:round;stroke-linejoin:round;stroke-width:0.75px"></polygon><polygon points="132.16 249.32 128.78 243.13 133.37 247.07 132.16 249.32" style="fill:#10A6FA;stroke:#263238;stroke-linecap:round;stroke-linejoin:round;stroke-width:0.75px"></polygon><polygon points="135.81 242.58 128.78 243.13 134.59 244.82 135.81 242.58" style="fill:#10A6FA;stroke:#263238;stroke-linecap:round;stroke-linejoin:round;stroke-width:0.75px"></polygon><polygon points="143.76 249.79 148.36 253.74 142.54 252.04 143.76 249.79" style="fill:#10A6FA;stroke:#263238;stroke-linecap:round;stroke-linejoin:round;stroke-width:0.75px"></polygon><polygon points="144.98 247.55 148.36 253.74 143.76 249.79 144.98 247.55" style="fill:#10A6FA;stroke:#263238;stroke-linecap:round;stroke-linejoin:round;stroke-width:0.75px"></polygon><polygon points="141.33 254.29 148.36 253.74 142.54 252.04 141.33 254.29" style="fill:#10A6FA;stroke:#263238;stroke-linecap:round;stroke-linejoin:round;stroke-width:0.75px"></polygon><rect x="138.51" y="240.97" width="2.55" height="10.43" transform="translate(-143.26 251.84) rotate(-61.56)" style="fill:#10A6FA;stroke:#263238;stroke-linecap:round;stroke-linejoin:round;stroke-width:0.75px"></rect><polyline points="143.71 262.62 189.3 262.62 193.59 252.74 187.69 249.55 182.86 251.29 177.02 241.48 168.65 242.19 166.3 249.55 161.41 247.94 156.58 254.35 143.71 252.74 137.81 255.5 143.71 262.62" style="fill:#263238;stroke:#263238;stroke-linecap:round;stroke-linejoin:round"></polyline><rect x="147.6" y="223.06" width="4.68" height="26.48" transform="translate(406.2 348.79) rotate(146.1)" style="fill:#10A6FA"></rect><g style="clip-path:url(#freepik--clip-path-17--inject-2)"><rect x="147.6" y="223.06" width="4.68" height="26.48" transform="translate(406.2 348.79) rotate(146.1)" style="opacity:0.30000000000000004"></rect></g><rect x="147.6" y="223.06" width="4.68" height="26.48" transform="translate(406.2 348.79) rotate(146.1)" style="fill:none;stroke:#263238;stroke-linecap:round;stroke-linejoin:round;stroke-width:0.75px"></rect><rect x="143.72" y="225.67" width="4.68" height="26.48" transform="translate(400.55 355.73) rotate(146.1)" style="fill:#10A6FA;stroke:#263238;stroke-linecap:round;stroke-linejoin:round;stroke-width:0.75px"></rect><polygon points="140.62 226.62 132.63 218.92 136.73 229.23 140.62 226.62" style="fill:#10A6FA;stroke:#263238;stroke-linecap:round;stroke-linejoin:round;stroke-width:0.75px"></polygon><polygon points="144.5 224.01 132.63 218.92 140.62 226.62 144.5 224.01" style="fill:#10A6FA;stroke:#263238;stroke-linecap:round;stroke-linejoin:round;stroke-width:0.75px"></polygon><polygon points="132.85 231.84 132.63 218.92 136.73 229.23 132.85 231.84" style="fill:#10A6FA"></polygon><g style="clip-path:url(#freepik--clip-path-18--inject-2)"><polygon points="132.85 231.84 132.63 218.92 136.73 229.23 132.85 231.84" style="fill:#fff;opacity:0.5"></polygon></g><polygon points="132.85 231.84 132.63 218.92 136.73 229.23 132.85 231.84" style="fill:none;stroke:#263238;stroke-linecap:round;stroke-linejoin:round;stroke-width:0.75px"></polygon><polygon points="151.5 251.2 159.49 258.9 155.39 248.59 151.5 251.2" style="fill:#10A6FA;stroke:#263238;stroke-linecap:round;stroke-linejoin:round;stroke-width:0.75px"></polygon><polygon points="147.62 253.81 159.49 258.9 151.5 251.2 147.62 253.81" style="fill:#10A6FA;stroke:#263238;stroke-linecap:round;stroke-linejoin:round;stroke-width:0.75px"></polygon><polygon points="159.27 245.99 159.49 258.9 155.39 248.59 159.27 245.99" style="fill:#10A6FA"></polygon><g style="clip-path:url(#freepik--clip-path-19--inject-2)"><polygon points="159.27 245.99 159.49 258.9 155.39 248.59 159.27 245.99" style="opacity:0.30000000000000004"></polygon></g><polygon points="159.27 245.99 159.49 258.9 155.39 248.59 159.27 245.99" style="fill:none;stroke:#263238;stroke-linecap:round;stroke-linejoin:round;stroke-width:0.75px"></polygon><rect x="139.84" y="228.28" width="4.68" height="26.48" transform="translate(394.89 362.68) rotate(146.1)" style="fill:#10A6FA"></rect><g style="clip-path:url(#freepik--clip-path-20--inject-2)"><rect x="139.84" y="228.28" width="4.68" height="26.48" transform="translate(394.89 362.68) rotate(146.1)" style="fill:#fff;opacity:0.5"></rect></g><rect x="139.84" y="228.28" width="4.68" height="26.48" transform="translate(394.89 362.68) rotate(146.1)" style="fill:none;stroke:#263238;stroke-linecap:round;stroke-linejoin:round;stroke-width:0.75px"></rect><polygon points="168.13 258.65 164.17 255.05 174.11 246.22 178.59 248.59 177.5 252.44 173.41 251.67 168.13 258.65" style="fill:#fff;opacity:0.30000000000000004"></polygon><polygon points="183.61 255.05 188.89 253.16 190.92 255.05 189.71 258.65 187.26 256.96 183.74 257.2 183.61 255.05" style="fill:#fff;opacity:0.30000000000000004"></polygon><polygon points="147.62 255.91 143.76 254.29 140.62 255.91 144.12 257.2 147.62 255.91" style="fill:#fff;opacity:0.30000000000000004"></polygon><path d="M186.45,211.28c1,0,2.92-2.73,2.92-2.73s-1.4,3-.9,3.89,3.82,1.17,3.82,1.17-3.32.31-3.82,1.17.9,3.89.9,3.89-1.92-2.72-2.92-2.72-2.92,2.72-2.92,2.72,1.39-3,.89-3.89-3.81-1.17-3.81-1.17,3.31-.3,3.81-1.17-.89-3.89-.89-3.89S185.45,211.28,186.45,211.28Z" style="fill:#fff"></path><path d="M188.6,216.63a17.3,17.3,0,0,0,.77,2s-1.92-2.72-2.92-2.72-2.92,2.72-2.92,2.72,1.39-3,.89-3.89-3.81-1.17-3.81-1.17a12.46,12.46,0,0,0,3.22-.71" style="fill:none;stroke:#263238;stroke-linecap:round;stroke-linejoin:round;stroke-width:0.75px"></path><path d="M188.68,209.44c.41-.49.69-.89.69-.89s-1.4,3-.9,3.89,3.82,1.17,3.82,1.17-3.32.31-3.82,1.17a1.29,1.29,0,0,0-.11.6" style="fill:none;stroke:#263238;stroke-linecap:round;stroke-linejoin:round;stroke-width:0.75px"></path><path d="M184.42,212.44c.5-.86-.89-3.89-.89-3.89s1.92,2.73,2.92,2.73c.46,0,1.12-.58,1.69-1.21" style="fill:none;stroke:#263238;stroke-linecap:round;stroke-linejoin:round;stroke-width:0.75px"></path><path d="M151.5,208.23c1,0,2.92-2.73,2.92-2.73s-1.39,3-.89,3.89,3.82,1.17,3.82,1.17-3.32.31-3.82,1.17.89,3.89.89,3.89-1.92-2.72-2.92-2.72-2.92,2.72-2.92,2.72,1.4-3,.9-3.89-3.82-1.17-3.82-1.17,3.32-.3,3.82-1.17-.9-3.89-.9-3.89S150.51,208.23,151.5,208.23Z" style="fill:#fff"></path><path d="M153.66,213.58a16.27,16.27,0,0,0,.76,2s-1.92-2.72-2.92-2.72-2.92,2.72-2.92,2.72,1.4-3,.9-3.89-3.82-1.17-3.82-1.17a12.51,12.51,0,0,0,3.23-.71" style="fill:none;stroke:#263238;stroke-linecap:round;stroke-linejoin:round;stroke-width:0.75px"></path><path d="M153.74,206.39c.4-.49.68-.89.68-.89s-1.39,3-.89,3.89,3.82,1.17,3.82,1.17-3.32.31-3.82,1.17a1.08,1.08,0,0,0-.11.6" style="fill:none;stroke:#263238;stroke-linecap:round;stroke-linejoin:round;stroke-width:0.75px"></path><path d="M149.48,209.39c.5-.86-.9-3.89-.9-3.89s1.93,2.73,2.92,2.73c.46,0,1.12-.58,1.7-1.21" style="fill:none;stroke:#263238;stroke-linecap:round;stroke-linejoin:round;stroke-width:0.75px"></path><path d="M134.83,430h-2.12a1.63,1.63,0,0,1-1.64-1.62L129.93,283.7h7.68l-1.14,144.67A1.64,1.64,0,0,1,134.83,430Z" style="fill:#757575"></path><g style="clip-path:url(#freepik--clip-path-21--inject-2)"><path d="M134.83,430h-2.12a1.63,1.63,0,0,1-1.64-1.62L129.93,283.7h7.68l-1.14,144.67A1.64,1.64,0,0,1,134.83,430Z" style="fill:#5c5c5c;stroke:#263238;stroke-linecap:round;stroke-linejoin:round"></path></g><path d="M134.83,430h-2.12a1.63,1.63,0,0,1-1.64-1.62L129.93,283.7h7.68l-1.14,144.67A1.64,1.64,0,0,1,134.83,430Z" style="fill:none;stroke:#263238;stroke-linecap:round;stroke-linejoin:round"></path><path d="M131,424.18l0,4.19a1.63,1.63,0,0,0,1.64,1.62h2.12a1.64,1.64,0,0,0,1.64-1.62l0-4.19Z" style="fill:#10A6FA;stroke:#263238;stroke-miterlimit:10"></path><path d="M165.59,430h-2.12a1.64,1.64,0,0,1-1.64-1.62L160.69,283.7h7.68l-1.14,144.67A1.64,1.64,0,0,1,165.59,430Z" style="fill:#5c5c5c"></path><g style="clip-path:url(#freepik--clip-path-22--inject-2)"><path d="M165.59,430h-2.12a1.64,1.64,0,0,1-1.64-1.62L160.69,283.7h7.68l-1.14,144.67A1.64,1.64,0,0,1,165.59,430Z" style="fill:#5c5c5c;stroke:#263238;stroke-linecap:round;stroke-linejoin:round"></path></g><path d="M165.59,430h-2.12a1.64,1.64,0,0,1-1.64-1.62L160.69,283.7h7.68l-1.14,144.67A1.64,1.64,0,0,1,165.59,430Z" style="fill:none;stroke:#263238;stroke-linecap:round;stroke-linejoin:round"></path><path d="M161.8,424.18l0,4.19a1.64,1.64,0,0,0,1.64,1.62h2.12a1.64,1.64,0,0,0,1.64-1.62l0-4.19Z" style="fill:#10A6FA;stroke:#263238;stroke-miterlimit:10"></path><path d="M375.29,430h-2.12a1.64,1.64,0,0,1-1.64-1.62L370.39,283.7h7.68l-1.14,144.67A1.63,1.63,0,0,1,375.29,430Z" style="fill:#5c5c5c"></path><g style="clip-path:url(#freepik--clip-path-23--inject-2)"><path d="M375.29,430h-2.12a1.64,1.64,0,0,1-1.64-1.62L370.39,283.7h7.68l-1.14,144.67A1.63,1.63,0,0,1,375.29,430Z" style="fill:#5c5c5c;stroke:#263238;stroke-linecap:round;stroke-linejoin:round"></path></g><path d="M375.29,430h-2.12a1.64,1.64,0,0,1-1.64-1.62L370.39,283.7h7.68l-1.14,144.67A1.63,1.63,0,0,1,375.29,430Z" style="fill:none;stroke:#263238;stroke-linecap:round;stroke-linejoin:round"></path><path d="M406.06,430h-2.13a1.64,1.64,0,0,1-1.64-1.62L401.15,283.7h7.69l-1.15,144.67A1.62,1.62,0,0,1,406.06,430Z" style="fill:#757575"></path><g style="clip-path:url(#freepik--clip-path-24--inject-2)"><path d="M406.06,430h-2.13a1.64,1.64,0,0,1-1.64-1.62L401.15,283.7h7.69l-1.15,144.67A1.62,1.62,0,0,1,406.06,430Z" style="fill:#5c5c5c;stroke:#263238;stroke-linecap:round;stroke-linejoin:round"></path></g><path d="M406.06,430h-2.13a1.64,1.64,0,0,1-1.64-1.62L401.15,283.7h7.69l-1.15,144.67A1.62,1.62,0,0,1,406.06,430Z" style="fill:none;stroke:#263238;stroke-linecap:round;stroke-linejoin:round"></path><path d="M371.5,424.18l0,4.19a1.64,1.64,0,0,0,1.64,1.62h2.12a1.63,1.63,0,0,0,1.64-1.62l0-4.19Z" style="fill:#10A6FA;stroke:#263238;stroke-miterlimit:10"></path><path d="M402.26,424.18l0,4.19a1.64,1.64,0,0,0,1.64,1.62h2.13a1.62,1.62,0,0,0,1.63-1.62l0-4.19Z" style="fill:#10A6FA;stroke:#263238;stroke-miterlimit:10"></path><rect x="128.77" y="267.17" width="281.76" height="20.18" style="fill:#999;stroke:#263238;stroke-linecap:round;stroke-linejoin:round"></rect><path d="M128.5,262H411.81a2.73,2.73,0,0,1,2.73,2.73v2.14a3.73,3.73,0,0,1-3.73,3.73H128.5a3.73,3.73,0,0,1-3.73-3.73v-1.14A3.73,3.73,0,0,1,128.5,262Z" style="fill:#bfbfbf"></path><path d="M128.5,262H411.81a2.73,2.73,0,0,1,2.73,2.73v2.14a3.73,3.73,0,0,1-3.73,3.73H128.5a3.73,3.73,0,0,1-3.73-3.73v-1.14A3.73,3.73,0,0,1,128.5,262Z" style="fill:none;stroke:#263238;stroke-miterlimit:10"></path><path d="M312.05,240.68v18.16a3.06,3.06,0,0,0,3.06,3.06H333a3.06,3.06,0,0,0,3.06-3.06V240.68Z" style="fill:#10A6FA"></path><g style="clip-path:url(#freepik--clip-path-25--inject-2)"><path d="M338.08,223.65a.57.57,0,0,1,.4,1L336.07,227v31.81A3.06,3.06,0,0,1,333,261.9h-17.9a3.06,3.06,0,0,1-3.06-3.06V223.65Z" style="fill:#fff;opacity:0.7000000000000001"></path></g><path d="M338.08,223.65a.57.57,0,0,1,.4,1L336.07,227v31.81A3.06,3.06,0,0,1,333,261.9h-17.9a3.06,3.06,0,0,1-3.06-3.06V223.65Z" style="fill:none;stroke:#263238;stroke-linecap:round;stroke-linejoin:round;stroke-width:0.75px"></path><path d="M319.53,225.7h-4.24a.37.37,0,0,1,0-.74h4.24a.37.37,0,0,1,0,.74Z" style="fill:#263238"></path><path d="M317.89,227.94h-2.6a.37.37,0,0,1,0-.74h2.6a.37.37,0,0,1,0,.74Z" style="fill:#263238"></path><path d="M317.89,230.19h-2.6a.37.37,0,0,1,0-.74h2.6a.37.37,0,0,1,0,.74Z" style="fill:#263238"></path><path d="M317.89,232.43h-2.6a.37.37,0,0,1,0-.73h2.6a.37.37,0,0,1,0,.73Z" style="fill:#263238"></path><path d="M317.89,234.68h-2.6a.37.37,0,0,1,0-.74h2.6a.37.37,0,0,1,0,.74Z" style="fill:#263238"></path><path d="M319.53,236.93h-4.24a.37.37,0,0,1,0-.74h4.24a.37.37,0,0,1,0,.74Z" style="fill:#263238"></path><path d="M317.89,239.17h-2.6a.37.37,0,0,1,0-.74h2.6a.37.37,0,0,1,0,.74Z" style="fill:#263238"></path><path d="M317.89,241.42h-2.6a.37.37,0,0,1,0-.74h2.6a.37.37,0,0,1,0,.74Z" style="fill:#263238"></path><path d="M317.89,243.66h-2.6a.37.37,0,0,1,0-.73h2.6a.37.37,0,0,1,0,.73Z" style="fill:#263238"></path><path d="M317.89,245.91h-2.6a.37.37,0,0,1,0-.74h2.6a.37.37,0,0,1,0,.74Z" style="fill:#263238"></path><path d="M319.53,248.16h-4.24a.37.37,0,0,1,0-.74h4.24a.37.37,0,0,1,0,.74Z" style="fill:#263238"></path><path d="M317.89,250.4h-2.6a.37.37,0,0,1,0-.74h2.6a.37.37,0,0,1,0,.74Z" style="fill:#263238"></path><path d="M317.89,252.65h-2.6a.37.37,0,0,1,0-.74h2.6a.37.37,0,0,1,0,.74Z" style="fill:#263238"></path><path d="M317.89,254.89h-2.6a.37.37,0,0,1,0-.74h2.6a.37.37,0,0,1,0,.74Z" style="fill:#263238"></path><path d="M317.89,257.14h-2.6a.37.37,0,0,1,0-.74h2.6a.37.37,0,0,1,0,.74Z" style="fill:#263238"></path><path d="M319.53,259.39h-4.24a.37.37,0,0,1,0-.74h4.24a.37.37,0,0,1,0,.74Z" style="fill:#263238"></path></g><g id="freepik--Sparks--inject-2"><path d="M282.52,212c1.11,0,3.25-3,3.25-3s-1.55,3.36-1,4.32,4.24,1.3,4.24,1.3-3.68.34-4.24,1.3,1,4.32,1,4.32-2.14-3-3.25-3-3.24,3-3.24,3,1.55-3.36,1-4.32-4.24-1.3-4.24-1.3,3.68-.34,4.24-1.3-1-4.32-1-4.32S281.42,212,282.52,212Z" style="fill:#fff"></path><path d="M284.92,217.93a19.51,19.51,0,0,0,.85,2.27s-2.14-3-3.25-3-3.24,3-3.24,3,1.55-3.36,1-4.32-4.24-1.3-4.24-1.3a13.93,13.93,0,0,0,3.58-.8" style="fill:none;stroke:#263238;stroke-linecap:round;stroke-linejoin:round;stroke-width:0.75px"></path><path d="M285,210c.45-.55.76-1,.76-1s-1.55,3.36-1,4.32,4.24,1.3,4.24,1.3-3.68.34-4.24,1.3a1.28,1.28,0,0,0-.12.66" style="fill:none;stroke:#263238;stroke-linecap:round;stroke-linejoin:round;stroke-width:0.75px"></path><path d="M280.28,213.28c.55-1-1-4.32-1-4.32s2.14,3,3.24,3c.52,0,1.25-.64,1.88-1.33" style="fill:none;stroke:#263238;stroke-linecap:round;stroke-linejoin:round;stroke-width:0.75px"></path><path d="M245.84,187.25c1,0,3-2.82,3-2.82s-1.44,3.13-.93,4,3.95,1.21,3.95,1.21-3.43.32-3.95,1.21.93,4,.93,4-2-2.82-3-2.82-3,2.82-3,2.82,1.44-3.13.93-4-3.95-1.21-3.95-1.21,3.43-.31,3.95-1.21-.93-4-.93-4S244.81,187.25,245.84,187.25Z" style="fill:#fff"></path><path d="M248.07,192.78a16.65,16.65,0,0,0,.79,2.12s-2-2.82-3-2.82-3,2.82-3,2.82,1.44-3.13.93-4-3.95-1.21-3.95-1.21a13,13,0,0,0,3.34-.74" style="fill:none;stroke:#263238;stroke-linecap:round;stroke-linejoin:round;stroke-width:0.75px"></path><path d="M248.15,185.35c.42-.51.71-.92.71-.92s-1.44,3.13-.93,4,3.95,1.21,3.95,1.21-3.43.32-3.95,1.21a1.15,1.15,0,0,0-.11.62" style="fill:none;stroke:#263238;stroke-linecap:round;stroke-linejoin:round;stroke-width:0.75px"></path><path d="M243.75,188.45c.51-.89-.93-4-.93-4s2,2.82,3,2.82c.48,0,1.16-.6,1.75-1.25" style="fill:none;stroke:#263238;stroke-linecap:round;stroke-linejoin:round;stroke-width:0.75px"></path><path d="M274.9,151.87c.71,0,2.09-2,2.09-2s-1,2.16-.64,2.78,2.73.84,2.73.84-2.37.22-2.73.84.64,2.78.64,2.78-1.38-1.95-2.09-1.95-2.09,1.95-2.09,1.95,1-2.16.64-2.78-2.73-.84-2.73-.84,2.37-.22,2.73-.84-.64-2.78-.64-2.78S274.19,151.87,274.9,151.87Z" style="fill:#fff"></path><path d="M276.44,155.7a13.67,13.67,0,0,0,.55,1.46s-1.38-1.95-2.09-1.95-2.09,1.95-2.09,1.95,1-2.16.64-2.78-2.73-.84-2.73-.84A9.1,9.1,0,0,0,273,153" style="fill:none;stroke:#263238;stroke-linecap:round;stroke-linejoin:round;stroke-width:0.75px"></path><path d="M276.5,150.55c.29-.35.49-.63.49-.63s-1,2.16-.64,2.78,2.73.84,2.73.84-2.37.22-2.73.84a.85.85,0,0,0-.08.42" style="fill:none;stroke:#263238;stroke-linecap:round;stroke-linejoin:round;stroke-width:0.75px"></path><path d="M273.45,152.7c.36-.62-.64-2.78-.64-2.78s1.38,2,2.09,2c.33,0,.8-.42,1.21-.87" style="fill:none;stroke:#263238;stroke-linecap:round;stroke-linejoin:round;stroke-width:0.75px"></path><path d="M229,245.59c.71,0,2.09-2,2.09-2s-1,2.17-.65,2.79,2.74.84,2.74.84-2.38.21-2.74.83.65,2.79.65,2.79-1.38-1.95-2.09-1.95-2.1,1.95-2.1,1.95,1-2.17.65-2.79-2.74-.83-2.74-.83,2.38-.22,2.74-.84-.65-2.79-.65-2.79S228.27,245.59,229,245.59Z" style="fill:#fff"></path><path d="M230.53,249.43a11.59,11.59,0,0,0,.55,1.46s-1.38-1.95-2.09-1.95-2.1,1.95-2.1,1.95,1-2.17.65-2.79-2.74-.83-2.74-.83a8.82,8.82,0,0,0,2.31-.52" style="fill:none;stroke:#263238;stroke-linecap:round;stroke-linejoin:round;stroke-width:0.75px"></path><path d="M230.59,244.28c.29-.35.49-.64.49-.64s-1,2.17-.65,2.79,2.74.84,2.74.84-2.38.21-2.74.83a.81.81,0,0,0-.07.43" style="fill:none;stroke:#263238;stroke-linecap:round;stroke-linejoin:round;stroke-width:0.75px"></path><path d="M227.54,246.43c.35-.62-.65-2.79-.65-2.79s1.38,2,2.1,2c.33,0,.8-.41,1.21-.86" style="fill:none;stroke:#263238;stroke-linecap:round;stroke-linejoin:round;stroke-width:0.75px"></path><line x1="290.81" y1="236.28" x2="290.81" y2="238.79" style="fill:none;stroke:#263238;stroke-linecap:round;stroke-linejoin:round"></line><line x1="290.81" y1="227.61" x2="290.81" y2="230.12" style="fill:none;stroke:#263238;stroke-linecap:round;stroke-linejoin:round"></line><line x1="287.73" y1="233.2" x2="285.22" y2="233.2" style="fill:none;stroke:#263238;stroke-linecap:round;stroke-linejoin:round"></line><line x1="296.4" y1="233.2" x2="293.89" y2="233.2" style="fill:none;stroke:#263238;stroke-linecap:round;stroke-linejoin:round"></line><line x1="288.63" y1="235.38" x2="286.86" y2="237.16" style="fill:none;stroke:#263238;stroke-linecap:round;stroke-linejoin:round"></line><line x1="294.76" y1="229.25" x2="292.99" y2="231.02" style="fill:none;stroke:#263238;stroke-linecap:round;stroke-linejoin:round"></line><line x1="288.63" y1="231.02" x2="286.86" y2="229.25" style="fill:none;stroke:#263238;stroke-linecap:round;stroke-linejoin:round"></line><line x1="294.76" y1="237.16" x2="292.99" y2="235.38" style="fill:none;stroke:#263238;stroke-linecap:round;stroke-linejoin:round"></line><line x1="230.31" y1="221.32" x2="230.31" y2="224.81" style="fill:none;stroke:#263238;stroke-linecap:round;stroke-linejoin:round"></line><line x1="230.31" y1="209.26" x2="230.31" y2="212.75" style="fill:none;stroke:#263238;stroke-linecap:round;stroke-linejoin:round"></line><line x1="226.02" y1="217.03" x2="222.53" y2="217.03" style="fill:none;stroke:#263238;stroke-linecap:round;stroke-linejoin:round"></line><line x1="238.08" y1="217.03" x2="234.59" y2="217.03" style="fill:none;stroke:#263238;stroke-linecap:round;stroke-linejoin:round"></line><line x1="227.28" y1="220.06" x2="224.81" y2="222.53" style="fill:none;stroke:#263238;stroke-linecap:round;stroke-linejoin:round"></line><line x1="235.8" y1="211.54" x2="233.34" y2="214.01" style="fill:none;stroke:#263238;stroke-linecap:round;stroke-linejoin:round"></line><line x1="227.28" y1="214.01" x2="224.81" y2="211.54" style="fill:none;stroke:#263238;stroke-linecap:round;stroke-linejoin:round"></line><line x1="235.8" y1="222.53" x2="233.34" y2="220.06" style="fill:none;stroke:#263238;stroke-linecap:round;stroke-linejoin:round"></line><line x1="306.62" y1="189.42" x2="306.62" y2="191.84" style="fill:none;stroke:#263238;stroke-linecap:round;stroke-linejoin:round"></line><line x1="306.62" y1="181.04" x2="306.62" y2="183.47" style="fill:none;stroke:#263238;stroke-linecap:round;stroke-linejoin:round"></line><line x1="303.64" y1="186.44" x2="301.21" y2="186.44" style="fill:none;stroke:#263238;stroke-linecap:round;stroke-linejoin:round"></line><line x1="312.02" y1="186.44" x2="309.59" y2="186.44" style="fill:none;stroke:#263238;stroke-linecap:round;stroke-linejoin:round"></line><line x1="304.51" y1="188.55" x2="302.8" y2="190.26" style="fill:none;stroke:#263238;stroke-linecap:round;stroke-linejoin:round"></line><line x1="310.43" y1="182.62" x2="308.72" y2="184.34" style="fill:none;stroke:#263238;stroke-linecap:round;stroke-linejoin:round"></line><line x1="304.51" y1="184.34" x2="302.8" y2="182.62" style="fill:none;stroke:#263238;stroke-linecap:round;stroke-linejoin:round"></line><line x1="310.43" y1="190.26" x2="308.72" y2="188.55" style="fill:none;stroke:#263238;stroke-linecap:round;stroke-linejoin:round"></line><g style="clip-path:url(#freepik--clip-path-26--inject-2)"><path d="M293.91,188.92a2.14,2.14,0,1,1-2.14-2.13A2.14,2.14,0,0,1,293.91,188.92Z" style="fill:#fff;opacity:0.7000000000000001"></path></g><path d="M293.91,188.92a2.14,2.14,0,1,1-2.14-2.13A2.14,2.14,0,0,1,293.91,188.92Z" style="fill:none;stroke:#263238;stroke-linecap:round;stroke-linejoin:round"></path><g style="clip-path:url(#freepik--clip-path-27--inject-2)"><path d="M268.21,203.49a2.14,2.14,0,1,1-2.14-2.13A2.14,2.14,0,0,1,268.21,203.49Z" style="fill:#fff;opacity:0.7000000000000001"></path></g><path d="M268.21,203.49a2.14,2.14,0,1,1-2.14-2.13A2.14,2.14,0,0,1,268.21,203.49Z" style="fill:none;stroke:#263238;stroke-linecap:round;stroke-linejoin:round"></path><g style="clip-path:url(#freepik--clip-path-28--inject-2)"><path d="M259.37,194.59a2.14,2.14,0,1,1-2.14-2.14A2.14,2.14,0,0,1,259.37,194.59Z" style="fill:#fff;opacity:0.7000000000000001"></path></g><path d="M259.37,194.59a2.14,2.14,0,1,1-2.14-2.14A2.14,2.14,0,0,1,259.37,194.59Z" style="fill:none;stroke:#263238;stroke-linecap:round;stroke-linejoin:round"></path><g style="clip-path:url(#freepik--clip-path-29--inject-2)"><path d="M238.42,186.44a2.14,2.14,0,1,1-2.13-2.13A2.13,2.13,0,0,1,238.42,186.44Z" style="fill:#fff;opacity:0.7000000000000001"></path></g><path d="M238.42,186.44a2.14,2.14,0,1,1-2.13-2.13A2.13,2.13,0,0,1,238.42,186.44Z" style="fill:none;stroke:#263238;stroke-linecap:round;stroke-linejoin:round"></path><path d="M246.66,241.55c.71,0,2.09-2,2.09-2s-1,2.17-.65,2.78,2.74.84,2.74.84-2.38.22-2.74.84.65,2.78.65,2.78-1.38-2-2.09-2-2.1,2-2.1,2,1-2.16.65-2.78-2.74-.84-2.74-.84,2.38-.22,2.74-.84-.65-2.78-.65-2.78S245.94,241.55,246.66,241.55Z" style="fill:#fff"></path><path d="M248.2,245.38a11.59,11.59,0,0,0,.55,1.46s-1.38-2-2.09-2-2.1,2-2.1,2,1-2.16.65-2.78-2.74-.84-2.74-.84a9.1,9.1,0,0,0,2.31-.51" style="fill:none;stroke:#263238;stroke-linecap:round;stroke-linejoin:round;stroke-width:0.75px"></path><path d="M248.26,240.24c.29-.36.49-.64.49-.64s-1,2.17-.65,2.78,2.74.84,2.74.84-2.38.22-2.74.84a.78.78,0,0,0-.07.43" style="fill:none;stroke:#263238;stroke-linecap:round;stroke-linejoin:round;stroke-width:0.75px"></path><path d="M245.21,242.38c.35-.61-.65-2.78-.65-2.78s1.38,2,2.1,2c.33,0,.8-.42,1.21-.86" style="fill:none;stroke:#263238;stroke-linecap:round;stroke-linejoin:round;stroke-width:0.75px"></path></g></svg>