<svg xmlns="http://www.w3.org/2000/svg" version="1.1" xmlns:xlink="http://www.w3.org/1999/xlink" xmlns:svgjs="http://svgjs.dev/svgjs" viewBox="0 0 2400 800" opacity="1"><defs><linearGradient x1="50%" y1="0%" x2="50%" y2="100%" id="oooscillate-grad"><stop stop-color="#f25c7c" stop-opacity="1" offset="0%"></stop><stop stop-color="#10a6fa" stop-opacity="1" offset="100%"></stop></linearGradient></defs><g stroke-width="1" stroke="url(#oooscillate-grad)" fill="none" stroke-linecap="round"><path d="M 0 559 Q 600 270 1200 400 Q 1800 530 2400 559" opacity="0.05"></path><path d="M 0 516 Q 600 270 1200 400 Q 1800 530 2400 516" opacity="0.13"></path><path d="M 0 473 Q 600 270 1200 400 Q 1800 530 2400 473" opacity="0.21"></path><path d="M 0 430 Q 600 270 1200 400 Q 1800 530 2400 430" opacity="0.29"></path><path d="M 0 387 Q 600 270 1200 400 Q 1800 530 2400 387" opacity="0.37"></path><path d="M 0 344 Q 600 270 1200 400 Q 1800 530 2400 344" opacity="0.45"></path><path d="M 0 301 Q 600 270 1200 400 Q 1800 530 2400 301" opacity="0.53"></path><path d="M 0 258 Q 600 270 1200 400 Q 1800 530 2400 258" opacity="0.60"></path><path d="M 0 215 Q 600 270 1200 400 Q 1800 530 2400 215" opacity="0.68"></path><path d="M 0 172 Q 600 270 1200 400 Q 1800 530 2400 172" opacity="0.76"></path><path d="M 0 129 Q 600 270 1200 400 Q 1800 530 2400 129" opacity="0.84"></path><path d="M 0 86 Q 600 270 1200 400 Q 1800 530 2400 86" opacity="0.92"></path></g></svg>