<svg id="Layer_1" data-name="Layer 1" xmlns="http://www.w3.org/2000/svg" xmlns:xlink="http://www.w3.org/1999/xlink" viewBox="0 0 632.35 129.02" width="633px" height="129px"><defs><style>.cls-1,.cls-2,.cls-3{fill-rule:evenodd;}.cls-2{fill:url(#linear-gradient);}.cls-3{fill:url(#linear-gradient-2);}</style><linearGradient id="linear-gradient" x1="7672.14" y1="-4746.64" x2="8355.71" y2="-3688.97" gradientTransform="matrix(0.07, 0, 0, -0.07, -165.7, -202.47)" gradientUnits="userSpaceOnUse"><stop offset="0" stop-color="#a33150"/><stop offset="0.4" stop-color="#c53347"/><stop offset="1" stop-color="#e7363e"/></linearGradient><linearGradient id="linear-gradient-2" x1="7465.85" y1="-4335.38" x2="8197.1" y2="-3203.93" xlink:href="#linear-gradient"/></defs><g id="Layer_1-2" data-name="Layer_1"><g id="_821385536" data-name=" 821385536"><path class="cls-1" d="M85.06,130.74V70.19c0-24.34-17.71-32.83-38.09-32.83-14.47,0-27.72,4.53-38.23,14.69L17,65.87C24.72,58,33.8,54.13,44,54.13c12.45,0,21.31,6.41,21.31,17v13.6C58.49,77,48.12,73,35.67,73,20.76,73,4.21,81.71,4.21,102.8,4.21,122.82,21,133,35.67,133c12.09,0,22.82-4.32,29.59-12.24v10ZM43.59,119.36C32.5,119.36,24,113,24,103S32.5,86.6,43.59,86.6c8.49,0,17,3.17,21.67,9.44v13.89C60.58,116.2,52.08,119.36,43.59,119.36Z" transform="translate(-4.21 -4.96)"/><path class="cls-1" d="M180.1,130.74V39.66H160.3v63.86c-4.54,6-13.18,11.88-23.19,11.88-11.3,0-18.5-4.46-18.5-18.64V39.66H98.81V104.1c0,18.5,9.79,28.87,29.45,28.87a43.67,43.67,0,0,0,32-14.33v12.1Z" transform="translate(-4.21 -4.96)"/><path class="cls-1" d="M232.29,133c9.08,0,14.91-2.66,18.51-5.83L246.05,112c-1.52,1.73-4.9,3.38-8.64,3.38-5.69,0-8.72-4.68-8.72-10.94V56.8H247.2V39.66H228.69V14.75h-19.8V39.66h-15V56.8h15v52.63C208.89,124.69,216.81,133,232.29,133Z" transform="translate(-4.21 -4.96)"/><path class="cls-1" d="M345.76,130.74V66.23c0-18.65-9.79-28.87-29.37-28.87-14.33,0-26.07,7.34-32,14.54V5h-19.8V130.74h19.8V67c4.53-6,13.17-12,23.33-12C318.83,54.93,326,59,326,73.36v57.38Z" transform="translate(-4.21 -4.96)"/><path class="cls-1" d="M474.21,89.34C475.65,107.2,487.6,122,506.68,122a35.55,35.55,0,0,0,27.21-11.81l1.73-1.8L542,115l-1.59,1.59c-9.43,9.86-19.87,14.69-33.69,14.69-26.35,0-43.13-20.52-43.13-46.08,0-23.83,16.42-45.87,41.4-45.87,26.49,0,40.89,21.1,40.89,45.87v4.1ZM535.62,80c-1-16.92-12.89-31.25-30.82-31.25-17.49,0-29,15-30.52,31.25Z" transform="translate(-4.21 -4.96)"/><path class="cls-1" d="M626.7,122.24A39.06,39.06,0,0,1,599.12,134c-26.28,0-39.53-21.46-39.53-45.86S572.91,42,599.12,42A38.11,38.11,0,0,1,626.7,54.13V12.45h9.86V131.89H626.7Zm0-12.45V66.52c-5.55-8.93-17.07-15.12-27.58-15.12C578.6,51.4,570,69.83,570,88.12s8.64,36.5,29.16,36.5C609.56,124.62,621.15,118.79,626.7,109.79Z" transform="translate(-4.21 -4.96)"/><path class="cls-2" d="M437.77,91a7.42,7.42,0,0,1,7.42,7.48v.36a19.14,19.14,0,0,1-14.47,31.68h-52a19.14,19.14,0,0,1-13.39-32.83l26-25.63a6.62,6.62,0,0,1-.08-1.29,7.42,7.42,0,1,1,7.42,7.48,10,10,0,0,1-1.44-.14c-2.74,2.66-5.47,5.4-8.21,8.06-3.81,3.82-7.56,7.63-11.16,11.52a66.57,66.57,0,0,0-7.34,8.93,9.06,9.06,0,0,0-1.15,4.75,9.38,9.38,0,0,0,9.36,9.36h52a9.44,9.44,0,0,0,9.36-9.36,10.85,10.85,0,0,0-1.87-5.47h-.44a7.45,7.45,0,0,1,0-14.9Z" transform="translate(-4.21 -4.96)"/><path class="cls-3" d="M410.78,91.86a9,9,0,0,1,1.36.14c2.81-2.66,5.55-5.4,8.28-8.06,3.75-3.81,7.56-7.63,11.16-11.52a64.8,64.8,0,0,0,7.27-8.93,9.11,9.11,0,0,0,1.23-4.75,9.39,9.39,0,0,0-9.36-9.36h-52a9.34,9.34,0,0,0-9.36,9.36,10.81,10.81,0,0,0,1.87,5.47h.43a7.46,7.46,0,1,1-7.49,7.42,2.93,2.93,0,0,0,.08-.36,19.14,19.14,0,0,1,14.47-31.68h52a19.14,19.14,0,0,1,13.39,32.83L418.05,98.05a7.44,7.44,0,1,1-14.76,1.3A7.52,7.52,0,0,1,410.78,91.86Z" transform="translate(-4.21 -4.96)"/></g></g></svg>