<svg xmlns="http://www.w3.org/2000/svg" viewBox="0 0 130 36"><g fill-rule="nonzero" fill="none"><path d="M55.916 10.828a12.34 12.34 0 0 1 3.41 0v5.618h5.59v-5.618a12.334 12.334 0 0 1 3.409 0v14.326a12.497 12.497 0 0 1-3.41 0v-6.197h-5.59v6.197a12.48 12.48 0 0 1-3.41 0l.001-14.326zM87.363 10.897c.68-.067 1.319-.121 1.913-.17.595-.046 1.84-.07 2.566-.07.85 0 1.69.068 2.517.2a7.552 7.552 0 0 1 2.238.707 4.392 4.392 0 0 1 1.612 1.375c.41.578.614 1.312.614 2.202 0 .53-.077.998-.234 1.404-.153.406-.35.762-.59 1.067-.24.305-.498.567-.775.785a5.506 5.506 0 0 1-.79.529l-.395.218 4.06 6.058c-.31.026-.633.053-.974.079a13.053 13.053 0 0 1-2.785-.08l-4.36-6.654.557-.239c.217-.093.478-.211.788-.358.31-.145.606-.33.894-.548.284-.22.528-.485.729-.798.201-.312.302-.68.302-1.105 0-.838-.279-1.45-.835-1.844-.556-.391-1.276-.587-2.157-.587-.34 0-1.234.019-1.51.06v12.094c-.28.027-.557.05-.835.07-.279.02-.552.03-.813.03-.263 0-.542-.007-.835-.02a10.645 10.645 0 0 1-.905-.079V10.897h.003zM102.463 10.828h9.462c.091.397.14.804.14 1.216 0 .437-.049.856-.14 1.255h-6.077v3.108h4.826c.091.425.14.838.14 1.235 0 .426-.049.843-.14 1.255h-4.825v3.786h6.24c.093.399.14.805.14 1.215 0 .439-.049.858-.14 1.256h-9.624V10.828h-.002z" fill="#0079ff"></path><g fill="#0079ff"><path d="M77.51 14.33l-1.092-3.55c-.178.017-.29.023-.477.046l-5.266 14.327a12 12 0 0 0 1.692.118c.511 0 1.045-.039 1.603-.118l3.54-10.823z"></path><path d="M79.722 10.828c-.356-.04-.682-.07-.974-.09a15.382 15.382 0 0 0-1.878 0c-.03.003-.065.009-.098.01l3.352 10.88h-4.56l-.766 2.41h6.114l.457 1.116c.556.08 1.129.118 1.716.118.603 0 1.221-.039 1.856-.118l-5.22-14.326z"></path></g><path d="M115.539 17.409h-1.553a4.54 4.54 0 0 1-.105-.593 5.373 5.373 0 0 1-.036-.593c0-.389.045-.769.14-1.143h4.777V25.15a10.58 10.58 0 0 1-1.624.13c-.51 0-1.043-.044-1.6-.13v-7.74zM122.684 16.33h-1.508l-.114-.43 4.336-5.641h.533v3.745h2.809c.045.216.074.408.093.581a6.682 6.682 0 0 1 0 1.12 5.852 5.852 0 0 1-.093.626h-2.809v4.376c0 .445.04.805.118 1.077.077.273.189.488.336.647.147.159.328.265.543.323.217.057.472.086.765.086.232 0 .46-.017.684-.055.225-.036.422-.067.592-.096.108.272.186.557.232.852a5.119 5.119 0 0 1 .057 1.186 3.286 3.286 0 0 1-.034.312c-.712.158-1.447.238-2.205.238-1.407 0-2.481-.305-3.223-.916-.742-.61-1.113-1.606-1.113-2.986v-5.044h.001z" fill="#0079ff"></path><path d="M118.762 11.927c0 1.015-.884 1.836-1.975 1.836-1.092 0-1.976-.821-1.976-1.836 0-1.015.886-1.836 1.976-1.836 1.091-.002 1.975.821 1.975 1.836z" fill="red"></path><path d="M51.563 17.803a8.303 8.303 0 0 0-3.664-1.235c-1.274-.197-2.088-.492-2.443-.888-.355-.394-.355-.872 0-1.432.355-.558 1.169-.839 2.443-.839 1.275 0 2.267.395 2.975 1.185 0 0 .816-.543 1.278-.972.532-.493.846-1.003.846-1.003l-.011-.01h.01c-1.09-1.214-2.987-2.019-5.147-2.019-.477 0-.94.045-1.386.118-.748.1-1.483.344-2.206.723-.12.061-.236.132-.353.201-.03.017-.06.036-.092.052l-.003.011-.003.002a5.329 5.329 0 0 0-1.08.9c-.094.103-.185.21-.265.319l-.034.05c-.073.1-.143.2-.203.304-.02.033-.036.069-.053.102-.05.09-.099.178-.14.27-.027.06-.046.123-.07.183-.027.07-.056.138-.08.209-.04.134-.074.27-.097.407h-.003c-.025.177-.04.359-.04.547 0 1.448.53 2.468 1.591 3.06a8.99 8.99 0 0 0 3.504 1.085c1.417.132 2.3.478 2.65 1.036.352.56.352 1.12 0 1.678-.35.56-1.233.84-2.65.84-1.698-.133-2.901-.592-3.61-1.382 0 0-.648.355-1.122.813-.473.457-1.003 1.16-1.003 1.16.71.659 1.558 1.185 2.55 1.58.991.394 2.227.593 3.707.593 1.556 0 2.923-.428 4.094-1.283 1.173-.856 1.757-1.876 1.757-3.06-.002-1.513-.55-2.616-1.647-3.305z" fill="#0079ff"></path><g><path d="M21.039 4.189A4.077 4.077 0 0 0 16.963.11a4.077 4.077 0 0 0 0 8.155A4.078 4.078 0 0 0 21.04 4.19zM11.594 7.392a6.22 6.22 0 0 1-.89-3.203c0-.292.028-.575.066-.856C4.551 5.82.154 11.898.154 19.008c0 .855.066 1.695.188 2.516l.009-.008C.7 14.784 5.336 9.178 11.594 7.392z" fill="#0079ff"></path><path d="M4.263 20.18a12.937 12.937 0 0 1-.055-1.172c0-5.139 3.023-9.569 7.386-11.614v-.002C5.336 9.178.7 14.784.35 21.518a6.225 6.225 0 0 1 3.86-1.34c.018-.001.035.002.052.002z" fill="#00dfff"></path><path d="M33.896 26.474a4.077 4.077 0 0 0-4.075-4.078 4.077 4.077 0 0 0 0 8.155 4.075 4.075 0 0 0 4.075-4.077zM8.287 26.439A4.077 4.077 0 0 0 4.21 22.36a4.077 4.077 0 0 0 0 8.155 4.075 4.075 0 0 0 4.076-4.077zM29.793 20.16c1.092-.01 2.2.255 3.213.845.251.147.483.313.706.487.982-6.628-2.054-13.49-8.195-17.068a16.878 16.878 0 0 0-2.267-1.105.03.03 0 0 1 .001.013c5.641 3.691 8.148 10.52 6.542 16.828z" fill="#0079ff"></path><path d="M22.399 7.368c.35.163.7.341 1.041.538 4.448 2.572 6.768 7.408 6.355 12.211h.002c1.585-6.312-.946-13.134-6.598-16.805a6.231 6.231 0 0 1-.773 4.013c-.006.014-.018.028-.027.043z" fill="#00dfff"></path><path d="M9.64 29.491a6.242 6.242 0 0 1-2.34 2.361c-.251.144-.512.261-.774.368 5.243 4.169 12.698 4.971 18.869 1.445a16.77 16.77 0 0 0 2.09-1.411.074.074 0 0 0-.01-.005c-6.017 3.037-13.181 1.79-17.835-2.758z" fill="#0079ff"></path><path d="M24.373 29.514c-.318.221-.646.433-.99.628-4.459 2.55-9.803 2.12-13.743-.654v.001c4.654 4.548 11.818 5.794 17.834 2.758a6.221 6.221 0 0 1-3.076-2.689c-.01-.012-.016-.029-.025-.044z" fill="#00dfff"></path></g></g></svg>
